<?xml version="1.0" encoding="UTF-8"?>
<!DOCTYPE svg PUBLIC "-//W3C//DTD SVG 1.1//EN" "http://www.w3.org/Graphics/SVG/1.1/DTD/svg11.dtd">
<!-- Creator: CorelDRAW -->
<svg xmlns="http://www.w3.org/2000/svg" xml:space="preserve" width="23px" height="25px" version="1.1" shape-rendering="geometricPrecision" text-rendering="geometricPrecision" image-rendering="optimizeQuality" fill-rule="evenodd" clip-rule="evenodd"
viewBox="0 0 0.56 0.62"
 xmlns:xlink="http://www.w3.org/1999/xlink"
 xmlns:xodm="http://www.corel.com/coreldraw/odm/2003">
 <g id="Layer_x0020_1">
  <metadata id="CorelCorpID_0Corel-Layer"/>
  <path fill="#B89B54" d="M0.18 0.44c-0.01,0 -0.01,0 -0.02,-0.01 -0.02,0 -0.05,0 -0.07,0.01 -0.02,0.01 -0.04,0.02 -0.06,0.03 0,0.01 -0.01,0.01 -0.01,0.02 0,0 0,0 0,0 -0.02,0.03 -0.03,0.06 -0.01,0.09 0.01,0.01 0.02,0.02 0.03,0.03l0.02 0c0,0 0,0 0,0 0,0 0.01,0 0.01,0 0.01,0.01 0.01,0.01 0.02,0.01 0.02,0 0.05,-0.01 0.07,-0.02 0.01,0 0.02,-0.01 0.02,-0.01 0,0 0.01,-0.01 0.01,-0.01l0 0c0,0 0,0 0,0l0.01 -0.01c0,0 0,0 0.01,-0.01 0,0 0,0 0,0 0,-0.01 0.01,-0.02 0.01,-0.03 0,-0.01 0,-0.01 0,-0.02 0,-0.07 0,-0.15 0,-0.22 0,-0.02 0,-0.03 0.02,-0.05 0,0 0,0 0,0 0,0 0,0 0,0 0,0 0,0 0,0 0.01,0 0.01,0 0.02,-0.01 0,0 0.01,0 0.01,0l0.05 -0.01c0,-0.01 0,-0.01 0,-0.01 0,0 0,0 0.01,0l0.02 -0.01c0,0 0,0 0,0l0.02 0c0,0 0,0 0,0l0.11 -0.04c0.02,0 0.03,0 0.03,0.02 0,0.01 0,0.03 0,0.05 0,0.01 0,0.03 0,0.04l0 0.08c0,0 0,0.01 0,0.02 -0.03,-0.01 -0.07,-0.01 -0.1,0 -0.01,0.01 -0.03,0.01 -0.04,0.02 -0.01,0.01 -0.02,0.02 -0.03,0.04 -0.02,0.03 -0.01,0.07 0.01,0.09 0.01,0 0.01,0.01 0.02,0.01 0.01,0 0.01,0.01 0.02,0.01l0.02 0c0.04,0.01 0.07,0 0.1,-0.02 0.01,0 0.01,-0.01 0.01,-0.01 0.01,0 0.01,-0.01 0.01,-0.01 0,0 0,0 0,0l0.01 -0.01c0,0 0,0 0,0l0.01 -0.01c0,-0.01 0,0 0,-0.01l0.01 0c0,-0.02 0,-0.04 0,-0.06 0,-0.08 0,-0.17 0,-0.25l0 -0.09c0,-0.01 0,-0.02 0,-0.03 0,-0.02 -0.01,-0.03 -0.02,-0.04 -0.02,0 -0.04,0 -0.06,0.01 -0.03,0.01 -0.06,0.02 -0.09,0.03 -0.03,0.01 -0.06,0.02 -0.09,0.03 -0.02,0 -0.04,0.01 -0.05,0.01 -0.03,0.01 -0.04,0.02 -0.06,0.04 0,0 -0.01,0.01 -0.01,0.02 -0.01,0.01 0,0.03 0,0.05 0,0.09 0,0.17 0,0.25z"/>
 </g>
</svg>
